<?xml version="1.0" encoding="UTF-8" standalone="no"?>
<!-- Created with Inkscape (http://www.inkscape.org/) -->

<svg
   xmlns:dc="http://purl.org/dc/elements/1.1/"
   xmlns:cc="http://creativecommons.org/ns#"
   xmlns:rdf="http://www.w3.org/1999/02/22-rdf-syntax-ns#"
   xmlns:svg="http://www.w3.org/2000/svg"
   xmlns="http://www.w3.org/2000/svg"
   xmlns:sodipodi="http://sodipodi.sourceforge.net/DTD/sodipodi-0.dtd"
   xmlns:inkscape="http://www.inkscape.org/namespaces/inkscape"
   width="600"
   height="500"
   viewBox="0 0 600.00001 500.00001"
   id="svg2"
   version="1.1"
   inkscape:version="0.91 r13725"
   sodipodi:docname="perkhidmatan-1.svg"
   style="shape-rendering:crispEdges">
  <defs
     id="defs4">
    <clipPath
       id="clipPath4290"
       clipPathUnits="userSpaceOnUse">
      <path
         inkscape:connector-curvature="0"
         id="path4292"
         d="m 2898.25,3070.78 c -1.11,-11.34 -16.61,-129.74 -138.36,-129.74 -127.81,0 -106.4,126.55 -106.4,126.55 l -0.16,0.79 c 12.46,2.56 25.88,3.52 40.1,1.92 l 0,59.91 145.08,81.17 5.27,0 0,-139.8 c 0,0 23,2.72 54.47,-0.8 z" />
    </clipPath>
    <radialGradient
       id="radialGradient4294"
       spreadMethod="pad"
       gradientTransform="matrix(129.255,0,0,-129.255,2775.2,3076.21)"
       gradientUnits="userSpaceOnUse"
       r="1"
       cy="0"
       cx="0"
       fy="0"
       fx="0">
      <stop
         id="stop4296"
         offset="0"
         style="stop-opacity:1;stop-color:#fabda6" />
      <stop
         id="stop4298"
         offset="1"
         style="stop-opacity:1;stop-color:#f9ad90" />
    </radialGradient>
    <clipPath
       id="clipPath4306"
       clipPathUnits="userSpaceOnUse">
      <path
         inkscape:connector-curvature="0"
         id="path4308"
         d="m 2827.79,3478.83 c 20.58,-20.86 36.13,-47.85 43.61,-80.84 13.94,-61.46 0.83,-126.49 -17.01,-185.72 -3.04,-10.14 -6.51,-20.36 -12.77,-28.89 -4.46,-6.08 -10.21,-11.09 -15.91,-16.05 -25.8,-22.47 -51.6,-44.95 -77.34,-67.49 -17.46,-15.27 -124.89,-28 -145.4,-13.35 -79.01,56.5 -94.22,220.18 -78.41,303.87 26.24,138.82 204.67,188.45 303.23,88.47 z" />
    </clipPath>
    <radialGradient
       id="radialGradient4310"
       spreadMethod="pad"
       gradientTransform="matrix(199.211,42.8947,42.8947,-199.211,2700.42,3310.17)"
       gradientUnits="userSpaceOnUse"
       r="1"
       cy="0"
       cx="0"
       fy="0"
       fx="0">
      <stop
         id="stop4312"
         offset="0"
         style="stop-opacity:1;stop-color:#fabda6" />
      <stop
         id="stop4314"
         offset="1"
         style="stop-opacity:1;stop-color:#f9ad90" />
    </radialGradient>
    <clipPath
       id="clipPath4348"
       clipPathUnits="userSpaceOnUse">
      <path
         inkscape:connector-curvature="0"
         id="path4350"
         d="m 2543.24,1200.98 42.18,-96.19 -129.25,-56.72 -42.34,96.5 129.41,56.41 z" />
    </clipPath>
    <radialGradient
       id="radialGradient4352"
       spreadMethod="pad"
       gradientTransform="matrix(81.2587,0,0,-81.2587,2499.63,1124.52)"
       gradientUnits="userSpaceOnUse"
       r="1"
       cy="0"
       cx="0"
       fy="0"
       fx="0">
      <stop
         id="stop4354"
         offset="0"
         style="stop-opacity:1;stop-color:#fabda6" />
      <stop
         id="stop4356"
         offset="1"
         style="stop-opacity:1;stop-color:#f9ad90" />
    </radialGradient>
    <clipPath
       id="clipPath4366"
       clipPathUnits="userSpaceOnUse">
      <path
         inkscape:connector-curvature="0"
         id="path4368"
         d="m 2050.48,1176.23 10.1,-144.5 -141.09,0 -10.1,144.82 141.09,-0.32 z" />
    </clipPath>
    <radialGradient
       id="radialGradient4370"
       spreadMethod="pad"
       gradientTransform="matrix(74.0153,0,0,-74.0153,1984.99,1104.14)"
       gradientUnits="userSpaceOnUse"
       r="1"
       cy="0"
       cx="0"
       fy="0"
       fx="0">
      <stop
         id="stop4372"
         offset="0"
         style="stop-opacity:1;stop-color:#fabda6" />
      <stop
         id="stop4374"
         offset="1"
         style="stop-opacity:1;stop-color:#f9ad90" />
    </radialGradient>
    <clipPath
       id="clipPath4392"
       clipPathUnits="userSpaceOnUse">
      <path
         inkscape:connector-curvature="0"
         id="path4394"
         d="m 2314.61,2462.53 -2.08,-69.98 -255.64,0 c 0,0 25.41,99.86 94.59,99.86 69.18,0 95.86,-36.59 95.86,-36.59 l 67.27,6.71 z" />
    </clipPath>
    <radialGradient
       id="radialGradient4396"
       spreadMethod="pad"
       gradientTransform="matrix(409.202,-65.6975,-65.6975,-409.202,2435.61,2493.03)"
       gradientUnits="userSpaceOnUse"
       r="1"
       cy="0"
       cx="0"
       fy="0"
       fx="0">
      <stop
         id="stop4398"
         offset="0"
         style="stop-opacity:1;stop-color:#fabda6" />
      <stop
         id="stop4400"
         offset="1"
         style="stop-opacity:1;stop-color:#f9ad90" />
    </radialGradient>
    <clipPath
       id="clipPath4414"
       clipPathUnits="userSpaceOnUse">
      <path
         inkscape:connector-curvature="0"
         id="path4416"
         d="m 2984.21,2504.39 -250.36,88.68 c -18.22,-34.04 -37.71,-59.6 -57.03,-64.72 -29.24,-7.66 -99.87,-20.92 -171.13,-33.38 -9.42,-1.76 -18.84,-3.36 -28.27,-5.12 -84.84,-14.69 -162.81,-27.32 -162.81,-27.32 l -0.16,-4.15 0,-2.72 -1.92,-63.11 0,-16.02 c 0,0 85,4.36 192.21,-3.15 150.03,-10.7 343.51,-17.1 407.57,13.09 30.04,14.23 54.01,60.88 72.87,118.4 l -0.97,-0.48 z" />
    </clipPath>
    <radialGradient
       id="radialGradient4418"
       spreadMethod="pad"
       gradientTransform="matrix(409.199,-65.6972,-65.6972,-409.199,2435.61,2493.03)"
       gradientUnits="userSpaceOnUse"
       r="1"
       cy="0"
       cx="0"
       fy="0"
       fx="0">
      <stop
         id="stop4420"
         offset="0"
         style="stop-opacity:1;stop-color:#fabda6" />
      <stop
         id="stop4422"
         offset="1"
         style="stop-opacity:1;stop-color:#f9ad90" />
    </radialGradient>
    <clipPath
       id="clipPath4468"
       clipPathUnits="userSpaceOnUse">
      <path
         inkscape:connector-curvature="0"
         id="path4470"
         d="m 3931.83,1627.85 c -17.15,-83.25 -11.99,-225.06 -122.12,-247.52 -29.66,-6.04 -58.31,14.51 -75.55,38.07 -22.56,30.83 -27.96,96.08 -27.57,133.41 0.31,29.58 10.4,62.56 13.64,92.41 3.52,32.23 6.37,64.53 10.13,96.74 13.55,116.08 74.19,213.37 176.76,271.32 7.94,-38.11 26.03,-70.36 41.99,-106.95 7.28,-16.68 13.84,-34.27 18.58,-51.75 8.38,-30.95 -1.76,-62.23 -9.29,-91.88 -11.13,-43.83 -17.43,-89.51 -26.57,-133.85 z" />
    </clipPath>
    <linearGradient
       id="linearGradient4472"
       spreadMethod="pad"
       gradientTransform="matrix(0.0271745,-633.004,-633.004,-0.0271745,3838.69,2012.27)"
       gradientUnits="userSpaceOnUse"
       y2="0"
       x2="1"
       y1="0"
       x1="0">
      <stop
         id="stop4474"
         offset="0"
         style="stop-opacity:1;stop-color:#5c60b6" />
      <stop
         id="stop4476"
         offset="1"
         style="stop-opacity:1;stop-color:#523ea0" />
    </linearGradient>
    <clipPath
       id="clipPath4486"
       clipPathUnits="userSpaceOnUse">
      <path
         inkscape:connector-curvature="0"
         id="path4488"
         d="m 3583.28,1651.69 c 19.59,-82.72 84.12,-209.09 -6.24,-275.95 -24.33,-18 -58.98,-11.44 -84.56,2.64 -33.46,18.42 -65.9,75.3 -81.29,109.31 -12.21,26.95 -16.98,61.11 -26.63,89.53 -10.43,30.7 -21.47,61.19 -31.66,91.97 -36.71,110.96 -22.79,224.75 45.74,320.58 23.27,-31.2 53.3,-52.8 83.21,-79.23 13.62,-12.05 27,-25.24 38.67,-39.08 20.67,-24.53 24.68,-57.16 30.36,-87.22 8.41,-44.44 21.98,-88.51 32.4,-132.55 z" />
    </clipPath>
    <linearGradient
       id="linearGradient4490"
       spreadMethod="pad"
       gradientTransform="matrix(267.194,-573.847,-573.847,-267.194,3336.6,1960.88)"
       gradientUnits="userSpaceOnUse"
       y2="0"
       x2="1"
       y1="0"
       x1="0">
      <stop
         id="stop4492"
         offset="0"
         style="stop-opacity:1;stop-color:#5c60b6" />
      <stop
         id="stop4494"
         offset="1"
         style="stop-opacity:1;stop-color:#523ea0" />
    </linearGradient>
    <clipPath
       id="clipPath4504"
       clipPathUnits="userSpaceOnUse">
      <path
         inkscape:connector-curvature="0"
         id="path4506"
         d="m 3774.17,1715.8 c 4.65,-105.1 53.85,-273.67 -71.48,-334.01 -33.76,-16.25 -74.36,-0.27 -102.19,22.77 -36.42,30.15 -62.69,106.81 -73.53,151.71 -8.59,35.59 -6.49,78.22 -11.64,115.01 -5.56,39.74 -11.93,79.36 -17.19,119.15 -18.93,143.38 24.33,278.5 129.83,379.12 21.07,-43.31 52.58,-76.52 82.8,-115.59 13.79,-17.8 26.99,-36.92 37.98,-56.45 19.45,-34.6 16.76,-75.21 16.71,-113.06 -0.06,-55.96 6.23,-112.69 8.71,-168.65 z" />
    </clipPath>
    <linearGradient
       id="linearGradient4508"
       spreadMethod="pad"
       gradientTransform="matrix(191.938,-759.499,-759.499,-191.938,3545.88,2148.8)"
       gradientUnits="userSpaceOnUse"
       y2="0"
       x2="1"
       y1="0"
       x1="0">
      <stop
         id="stop4510"
         offset="0"
         style="stop-opacity:1;stop-color:#5c60b6" />
      <stop
         id="stop4512"
         offset="1"
         style="stop-opacity:1;stop-color:#523ea0" />
    </linearGradient>
    <clipPath
       id="clipPath5958"
       clipPathUnits="userSpaceOnUse">
      <path
         inkscape:connector-curvature="0"
         id="path5960"
         d="m 3041.02,3773.3 0,209.42 583.59,217.76 0,-209.42 -583.59,-217.76" />
    </clipPath>
    <clipPath
       id="clipPath5970"
       clipPathUnits="userSpaceOnUse">
      <path
         inkscape:connector-curvature="0"
         id="path5972"
         d="m 3041.02,3632.22 0,106.22 583.59,217.77 0,-106.22 -583.59,-217.77" />
    </clipPath>
    <clipPath
       id="clipPath5982"
       clipPathUnits="userSpaceOnUse">
      <path
         inkscape:connector-curvature="0"
         id="path5984"
         d="m 3645.04,3774.06 0,209.42 4.98,1.86 0,-209.42 -4.98,-1.86" />
    </clipPath>
    <clipPath
       id="clipPath5994"
       clipPathUnits="userSpaceOnUse">
      <path
         inkscape:connector-curvature="0"
         id="path5996"
         d="m 3650.02,3775.92 0,209.42 578.61,215.91 0,-209.42 -578.61,-215.91" />
    </clipPath>
    <clipPath
       id="clipPath6006"
       clipPathUnits="userSpaceOnUse">
      <path
         inkscape:connector-curvature="0"
         id="path6008"
         d="m 3645.04,3632.98 0,106.23 4.98,1.86 0,-106.23 -4.98,-1.86" />
    </clipPath>
    <clipPath
       id="clipPath6018"
       clipPathUnits="userSpaceOnUse">
      <path
         inkscape:connector-curvature="0"
         id="path6020"
         d="m 3650.02,3634.84 0,106.23 578.61,215.91 0,-106.23 -578.61,-215.91" />
    </clipPath>
    <clipPath
       id="clipPath6728"
       clipPathUnits="userSpaceOnUse">
      <path
         inkscape:connector-curvature="0"
         id="path6730"
         d="M 5000,0 0,0 l 0,5000 5000,0 0,-5000 m -4740,4050 0,-3240 4620,0 0,3240 -4620,0" />
    </clipPath>
    <linearGradient
       id="linearGradient6732"
       spreadMethod="pad"
       gradientTransform="matrix(2990,-7250,-7250,-2990,1680.65,4486.72)"
       gradientUnits="userSpaceOnUse"
       y2="0"
       x2="1"
       y1="0"
       x1="0">
      <stop
         id="stop6734"
         offset="0"
         style="stop-opacity:1;stop-color:#a25eb6" />
      <stop
         id="stop6736"
         offset="1"
         style="stop-opacity:1;stop-color:#4760b5" />
    </linearGradient>
    <clipPath
       id="clipPath6744"
       clipPathUnits="userSpaceOnUse">
      <path
         inkscape:connector-curvature="0"
         id="path6746"
         d="m 4880,810 -4620,0 0,3240 4620,0 0,-3240 m -3002.36,355 0,0 2592.36,0 c 48.79,0 88.33,39.55 88.33,88.33 l 0,2503.33 0,0 c 0,48.79 -39.54,88.34 -88.33,88.34 l -3943.332,0 c -48.785,0 -88.332,-39.55 -88.332,-88.34 l 0,-2503.33 c 0,-48.78 39.547,-88.33 88.332,-88.33 l 1350.972,0" />
    </clipPath>
  </defs>
  <sodipodi:namedview
     id="base"
     pagecolor="#ffffff"
     bordercolor="#666666"
     borderopacity="1.0"
     inkscape:pageopacity="0.0"
     inkscape:pageshadow="2"
     inkscape:zoom="0.7875"
     inkscape:cx="239.1939"
     inkscape:cy="312.41501"
     inkscape:document-units="px"
     inkscape:current-layer="layer1"
     showgrid="false"
     inkscape:window-width="1366"
     inkscape:window-height="718"
     inkscape:window-x="0"
     inkscape:window-y="0"
     inkscape:window-maximized="1"
     inkscape:showpageshadow="true"
     showborder="true"
     units="px" />
  <metadata
     id="metadata7">
    <rdf:RDF>
      <cc:Work
         rdf:about="">
        <dc:format>image/svg+xml</dc:format>
        <dc:type
           rdf:resource="http://purl.org/dc/dcmitype/StillImage" />
        <dc:title></dc:title>
      </cc:Work>
    </rdf:RDF>
  </metadata>
  <g
     inkscape:label="Layer 1"
     inkscape:groupmode="layer"
     id="layer1"
     transform="translate(0,-552.36214)">
    <g
       id="g7788"
       transform="matrix(2.3142008,0,0,2.3142008,-507.14902,-978.61022)">
      <path
         d="m 433.20609,828.669 c 9.67625,-5.91375 12.72625,-18.5525 6.81125,-28.2275 -1.32,-2.16 -2.9875,-3.96875 -4.86875,-5.4425 2.44875,-3.46625 5.2575,-6.81625 8.44375,-10 1.4775,-1.47625 2.9775,-2.86875 4.49375,-4.20125 0.6075,0.51125 1.20125,1.04 1.78,1.59125 l 5.04375,-3.0825 c 2.58,-1.5775 5.95,-0.76375 7.5275,1.81625 l 4.9975,8.17625 c 1.57625,2.58 0.7625,5.95 -1.8175,7.5275 l -5.04375,3.0825 c 1.13375,3.83125 1.66,7.75875 1.615,11.655 l 5.70125,1.59 c 2.9125,0.81375 4.615,3.83375 3.8025,6.74625 l -2.57625,9.23125 c -0.8125,2.9125 -3.8325,4.61375 -6.745,3.8025 l -5.695,-1.59 c -1.51125,2.56375 -3.3225,4.9725 -5.42,7.1725 l 3.08375,5.04375 c 1.5775,2.58 0.7625,5.95 -1.81625,7.5275 l -8.17625,4.9975 c -2.58125,1.57625 -5.95125,0.7625 -7.52875,-1.8175 l -3.08125,-5.0425 c -2.95375,0.8725 -5.9625,1.3775 -8.97125,1.54625 -1.71875,-6.15875 -2.48375,-12.6 -2.2525,-19.11125 3.65125,10e-4 7.34875,-0.94875 10.6925,-2.99125"
         style="fill:#668fd2;fill-opacity:1;fill-rule:nonzero;stroke:none"
         id="path6812"
         inkscape:connector-curvature="0" />
      <path
         d="m 418.91609,852.49025 -176.2525,0 c -4.78125,0 -8.66,-3.87625 -8.66,-8.66 l 0,-120.2175 c 0,-4.7825 3.87875,-8.66 8.66,-8.66 l 176.2525,0 c 4.7825,0 8.66,3.8775 8.66,8.66 l 0,120.2175 c 0,4.78375 -3.8775,8.66 -8.66,8.66"
         style="fill:#e8ebf8;fill-opacity:1;fill-rule:nonzero;stroke:none"
         id="path6814"
         inkscape:connector-curvature="0" />
      <path
         d="m 418.16609,850.6815 -174.75125,0 c -3.79,0 -6.86375,-3.07375 -6.86375,-6.86375 l 0,-120.19125 c 0,-3.79125 3.07375,-6.86375 6.86375,-6.86375 l 174.75125,0 c 3.79,0 6.8625,3.0725 6.8625,6.86375 l 0,120.19125 c 0,3.79 -3.0725,6.86375 -6.8625,6.86375"
         style="fill:#84b6e5;fill-opacity:1;fill-rule:nonzero;stroke:none"
         id="path6816"
         inkscape:connector-curvature="0" />
      <path
         d="m 412.64984,838.864 -163.71875,0 c -2.33625,0 -4.23,-1.89375 -4.23,-4.22875 l 0,-107.34125 c 0,-2.33625 1.89375,-4.22875 4.23,-4.22875 l 163.71875,0 c 2.33625,0 4.22875,1.8925 4.22875,4.22875 l 0,107.34125 c 0,2.335 -1.8925,4.22875 -4.22875,4.22875"
         style="fill:#4c64b8;fill-opacity:1;fill-rule:nonzero;stroke:none"
         id="path6818"
         inkscape:connector-curvature="0" />
      <path
         d="m 229.30359,845.359 c -0.5575,1.0275 -0.9025,2.1875 -0.9025,3.43875 0,4.00875 3.25,7.25875 7.25875,7.25875 l 190.26125,0 c 4.00875,0 7.2575,-3.25 7.2575,-7.25875 0,-1.25125 -0.345,-2.41125 -0.9025,-3.43875 l -202.9725,0"
         style="fill:#e8ebf8;fill-opacity:1;fill-rule:nonzero;stroke:none"
         id="path6820"
         inkscape:connector-curvature="0" />
      <path
         d="m 229.30359,852.2365 c 1.23,2.265 3.59875,3.82 6.35625,3.82 l 190.26125,0 c 2.7575,0 5.12625,-1.555 6.355,-3.82 l -202.9725,0"
         style="fill:#ced8f0;fill-opacity:1;fill-rule:nonzero;stroke:none"
         id="path6822"
         inkscape:connector-curvature="0" />
      <path
         d="m 427.57609,804.729 -2.5475,0 0,-3.8875 2.5475,0 0,3.8875 m -133.07625,-87.96625 -4.7525,0 0,-1.81 4.7525,0 0,1.81"
         style="fill:#c4c6e2;fill-opacity:1;fill-rule:nonzero;stroke:none"
         id="path6824"
         inkscape:connector-curvature="0" />
      <path
         d="m 425.02859,804.729 -8.15,0 0,-3.8875 8.15,0 0,3.8875 m -130.52875,-81.66375 -4.7525,0 0,-6.3025 4.7525,0 0,6.3025"
         style="fill:#699bd9;fill-opacity:1;fill-rule:nonzero;stroke:none"
         id="path6826"
         inkscape:connector-curvature="0" />
      <path
         d="m 416.87859,804.729 -123.67375,0 c -1.91,0 -3.4575,-1.54625 -3.4575,-3.455 l 0,-78.20875 4.7525,0 0,74.32 c 0,1.91 1.5475,3.45625 3.4575,3.45625 l 118.92125,0 0,3.8875"
         style="fill:#455ab1;fill-opacity:1;fill-rule:nonzero;stroke:none"
         id="path6828"
         inkscape:connector-curvature="0" />
      <path
         d="m 440.25609,800.8415 -12.68,0 0,-77.22875 c 0,-4.7825 -3.8775,-8.66 -8.66,-8.66 l -124.41625,0 0,-6.56375 c 0,-1.90875 1.5475,-3.45625 3.4575,-3.45625 l 144.29375,0 c 1.90875,0 3.4575,1.5475 3.4575,3.45625 l 0,74.565 c -0.71,0.665 -1.415,1.345 -2.11625,2.045 -3.18625,3.18375 -5.995,6.53375 -8.44375,10 1.88125,1.47375 3.54875,3.2825 4.86875,5.4425 0.0813,0.1325 0.16125,0.26625 0.23875,0.4"
         style="fill:#96c3ea;fill-opacity:1;fill-rule:nonzero;stroke:none"
         id="path6830"
         inkscape:connector-curvature="0" />
      <path
         d="m 442.25109,800.8415 -1.995,0 c -0.0775,-0.13375 -0.1575,-0.2675 -0.23875,-0.4 -1.32,-2.16 -2.9875,-3.96875 -4.86875,-5.4425 2.44875,-3.46625 5.2575,-6.81625 8.44375,-10 0.70125,-0.7 1.40625,-1.38 2.11625,-2.045 l 0,14.43125 c 0,1.91 -1.54875,3.45625 -3.4575,3.45625"
         style="fill:#7da5dc;fill-opacity:1;fill-rule:nonzero;stroke:none"
         id="path6832"
         inkscape:connector-curvature="0" />
      <path
         d="m 427.57609,800.8415 -2.5475,0 0,-77.215 c 0,-3.79125 -3.0725,-6.86375 -6.8625,-6.86375 l -123.66625,0 0,-1.81 124.41625,0 c 4.7825,0 8.66,3.8775 8.66,8.66 l 0,77.22875"
         style="fill:#ccceea;fill-opacity:1;fill-rule:nonzero;stroke:none"
         id="path6834"
         inkscape:connector-curvature="0" />
      <path
         d="m 425.02859,800.8415 -8.15,0 0,-73.5475 c 0,-2.33625 -1.8925,-4.22875 -4.22875,-4.22875 l -118.15,0 0,-6.3025 123.66625,0 c 3.79,0 6.8625,3.0725 6.8625,6.86375 l 0,77.215"
         style="fill:#83ade0;fill-opacity:1;fill-rule:nonzero;stroke:none"
         id="path6836"
         inkscape:connector-curvature="0" />
      <path
         d="m 416.87859,800.8415 -118.92125,0 c -1.91,0 -3.4575,-1.54625 -3.4575,-3.45625 l 0,-74.32 118.15,0 c 2.33625,0 4.22875,1.8925 4.22875,4.22875 l 0,73.5475"
         style="fill:#596fbf;fill-opacity:1;fill-rule:nonzero;stroke:none"
         id="path6838"
         inkscape:connector-curvature="0" />
      <path
         d="m 448.29984,794.3615 -144.295,0 c -1.90875,0 -3.45625,-1.5475 -3.45625,-3.45625 l 0,-88.99625 c 0,-1.91 1.5475,-3.45625 3.45625,-3.45625 l 144.295,0 c 1.90875,0 3.45625,1.54625 3.45625,3.45625 l 0,88.99625 c 0,1.90875 -1.5475,3.45625 -3.45625,3.45625"
         style="fill:#fbfdfe;fill-opacity:1;fill-rule:nonzero;stroke:none"
         id="path6840"
         inkscape:connector-curvature="0" />
      <path
         d="m 272.62984,763.904 -15.3375,0 c -1.19375,0 -2.16,-0.9675 -2.16,-2.16 l 0,-16.20125 c 0,-1.19375 0.96625,-2.16 2.16,-2.16 l 15.3375,0 c 1.1925,0 2.15875,0.96625 2.15875,2.16 l 0,16.20125 c 0,1.1925 -0.96625,2.16 -2.15875,2.16"
         style="fill:#455ab1;fill-opacity:1;fill-rule:nonzero;stroke:none"
         id="path6842"
         inkscape:connector-curvature="0" />
      <path
         d="m 271.49609,793.714 -15.3375,0 c -1.19375,0 -2.16,-0.96875 -2.16,-2.16125 l 0,-16.20125 c 0,-1.1925 0.96625,-2.15875 2.16,-2.15875 l 15.3375,0 c 1.1925,0 2.15875,0.96625 2.15875,2.15875 l 0,16.20125 c 0,1.1925 -0.96625,2.16125 -2.15875,2.16125"
         style="fill:#84b6e5;fill-opacity:1;fill-rule:nonzero;stroke:none"
         id="path6844"
         inkscape:connector-curvature="0" />
      <path
         d="m 271.49609,822.87525 -15.3375,0 c -1.19375,0 -2.16,-0.96875 -2.16,-2.16125 l 0,-16.20125 c 0,-1.1925 0.96625,-2.15875 2.16,-2.15875 l 15.3375,0 c 1.1925,0 2.15875,0.96625 2.15875,2.15875 l 0,16.20125 c 0,1.1925 -0.96625,2.16125 -2.15875,2.16125"
         style="fill:#84b6e5;fill-opacity:1;fill-rule:nonzero;stroke:none"
         id="path6846"
         inkscape:connector-curvature="0" />
      <path
         d="m 268.12109,810.354 c 0,-2.58 -2.09125,-4.6725 -4.6725,-4.6725 -2.58,0 -4.6725,2.0925 -4.6725,4.6725 0,0 -0.6575,4.94875 4.6725,8.885 5.33125,-3.93625 4.6725,-8.885 4.6725,-8.885"
         style="fill:#8063b8;fill-opacity:1;fill-rule:nonzero;stroke:none"
         id="path6848"
         inkscape:connector-curvature="0" />
      <path
         d="m 263.72359,813.7265 c -2.085,0.165 -3.8125,-1.5625 -3.64875,-3.6475 0.12875,-1.64 1.45875,-2.97 3.09875,-3.09875 2.085,-0.16375 3.8125,1.56375 3.6475,3.64875 -0.12875,1.64 -1.4575,2.96875 -3.0975,3.0975"
         style="fill:#fbfdfe;fill-opacity:1;fill-rule:nonzero;stroke:none"
         id="path6850"
         inkscape:connector-curvature="0" />
      <path
         d="m 269.82109,783.1815 c 0,3.57 -2.895,6.465 -6.46375,6.465 -3.57125,0 -6.465,-2.895 -6.465,-6.465 0,-3.57 2.89375,-6.46375 6.465,-6.46375 3.56875,0 6.46375,2.89375 6.46375,6.46375"
         style="fill:#8063b8;fill-opacity:1;fill-rule:nonzero;stroke:none"
         id="path6852"
         inkscape:connector-curvature="0" />
      <path
         d="m 268.56984,783.1815 c 0,2.88 -2.33375,5.21375 -5.2125,5.21375 -2.88,0 -5.21375,-2.33375 -5.21375,-5.21375 0,-2.87875 2.33375,-5.2125 5.21375,-5.2125 2.87875,0 5.2125,2.33375 5.2125,5.2125"
         style="fill:#fbfdfe;fill-opacity:1;fill-rule:nonzero;stroke:none"
         id="path6854"
         inkscape:connector-curvature="0" />
      <path
         d="m 263.35734,777.969 c 2.3625,0 4.35625,1.57125 4.9975,3.72625 l 0.19875,0.1525 c 0.13875,0 0.24125,-0.13375 0.20125,-0.26625 -0.68875,-2.33 -2.845,-4.03 -5.3975,-4.03 -2.55375,0 -4.70875,1.7 -5.3975,4.03 -0.0412,0.1325 0.06,0.26625 0.2,0.26625 l 0.2,-0.1525 c 0.64,-2.155 2.63375,-3.72625 4.9975,-3.72625"
         style="fill:#a97bc4;fill-opacity:1;fill-rule:nonzero;stroke:none"
         id="path6856"
         inkscape:connector-curvature="0" />
      <path
         d="m 269.13984,783.349 c -0.31,0 -0.5775,0.225 -0.6175,0.5325 -0.34375,2.54875 -2.525,4.51375 -5.165,4.51375 -2.64125,0 -4.8225,-1.965 -5.165,-4.51375 -0.0412,-0.3075 -0.30875,-0.5325 -0.61875,-0.5325 -0.37625,0 -0.67125,0.33 -0.62125,0.7025 0.42625,3.15875 3.13,5.595 6.405,5.595 3.27375,0 5.97875,-2.43625 6.40375,-5.595 0.05,-0.3725 -0.245,-0.7025 -0.62125,-0.7025"
         style="fill:#6a52ae;fill-opacity:1;fill-rule:nonzero;stroke:none"
         id="path6858"
         inkscape:connector-curvature="0" />
      <path
         d="m 268.56984,783.1815 c 0,2.88 -2.33375,5.21375 -5.2125,5.21375 -2.88,0 -5.21375,-2.33375 -5.21375,-5.21375 0,-2.87875 2.33375,-5.2125 5.21375,-5.2125 2.87875,0 5.2125,2.33375 5.2125,5.2125"
         style="fill:#fbfdfe;fill-opacity:1;fill-rule:nonzero;stroke:none"
         id="path6860"
         inkscape:connector-curvature="0" />
      <path
         d="m 268.43734,784.864 -0.19625,0.13875 c -0.73875,1.98125 -2.64625,3.3925 -4.88375,3.3925 -2.23875,0 -4.14625,-1.41125 -4.885,-3.3925 l -0.1975,-0.13875 c -0.145,0 -0.2475,0.145 -0.19625,0.28125 0.79625,2.14125 2.85875,3.66625 5.27875,3.66625 2.4175,0 4.48125,-1.525 5.27875,-3.66625 0.05,-0.13625 -0.0525,-0.28125 -0.19875,-0.28125"
         style="fill:#8063b8;fill-opacity:1;fill-rule:nonzero;stroke:none"
         id="path6862"
         inkscape:connector-curvature="0" />
      <path
         d="m 263.34234,783.64025 0,0 c -0.1375,0 -0.25,-0.1125 -0.25,-0.25 l 0,-3.67125 c 0,-0.1375 0.1125,-0.24875 0.25,-0.24875 0.13875,0 0.25,0.11125 0.25,0.24875 l 0,3.67125 c 0,0.1375 -0.11125,0.25 -0.25,0.25"
         style="fill:#8063b8;fill-opacity:1;fill-rule:nonzero;stroke:none"
         id="path6864"
         inkscape:connector-curvature="0" />
      <path
         d="m 263.16234,783.2515 0,0 0.3525,-0.03 2.26375,1.9125 0.03,0.35375 -0.3525,0.0287 -2.26375,-1.9125 -0.03,-0.3525"
         style="fill:#8063b8;fill-opacity:1;fill-rule:nonzero;stroke:none"
         id="path6866"
         inkscape:connector-curvature="0" />
      <path
         d="m 263.39859,778.824 -0.1875,0 0,-0.50125 0.1875,0 0,0.50125"
         style="fill:#d4d4ee;fill-opacity:1;fill-rule:nonzero;stroke:none"
         id="path6868"
         inkscape:connector-curvature="0" />
      <path
         d="m 263.39859,787.9565 -0.1875,0 0,-0.5 0.1875,0 0,0.5"
         style="fill:#d4d4ee;fill-opacity:1;fill-rule:nonzero;stroke:none"
         id="path6870"
         inkscape:connector-curvature="0" />
      <path
         d="m 258.98859,783.04525 0,0.18875 -0.50125,0 0,-0.18875 0.50125,0"
         style="fill:#d4d4ee;fill-opacity:1;fill-rule:nonzero;stroke:none"
         id="path6872"
         inkscape:connector-curvature="0" />
      <path
         d="m 268.12109,783.04525 0,0.18875 -0.5,0 0,-0.18875 0.5,0"
         style="fill:#d4d4ee;fill-opacity:1;fill-rule:nonzero;stroke:none"
         id="path6874"
         inkscape:connector-curvature="0" />
      <path
         d="m 260.31859,780.0215 -0.1325,0.1325 -0.35375,-0.35375 0.1325,-0.13375 0.35375,0.355"
         style="fill:#d4d4ee;fill-opacity:1;fill-rule:nonzero;stroke:none"
         id="path6876"
         inkscape:connector-curvature="0" />
      <path
         d="m 266.77734,786.48025 -0.1325,0.1325 -0.35375,-0.35375 0.1325,-0.13375 0.35375,0.355"
         style="fill:#d4d4ee;fill-opacity:1;fill-rule:nonzero;stroke:none"
         id="path6878"
         inkscape:connector-curvature="0" />
      <path
         d="m 260.18609,786.12525 0.1325,0.13375 -0.35375,0.35375 -0.1325,-0.1325 0.35375,-0.355"
         style="fill:#d4d4ee;fill-opacity:1;fill-rule:nonzero;stroke:none"
         id="path6880"
         inkscape:connector-curvature="0" />
      <path
         d="m 266.64484,779.6665 0.1325,0.13375 -0.35375,0.35375 -0.1325,-0.1325 0.35375,-0.355"
         style="fill:#d4d4ee;fill-opacity:1;fill-rule:nonzero;stroke:none"
         id="path6882"
         inkscape:connector-curvature="0" />
      <path
         d="m 271.49609,763.25525 -15.3375,0 c -1.19375,0 -2.16,-0.96625 -2.16,-2.16 l 0,-16.20125 c 0,-1.1925 0.96625,-2.16 2.16,-2.16 l 15.3375,0 c 1.1925,0 2.15875,0.9675 2.15875,2.16 l 0,16.20125 c 0,1.19375 -0.96625,2.16 -2.15875,2.16"
         style="fill:#84b6e5;fill-opacity:1;fill-rule:nonzero;stroke:none"
         id="path6884"
         inkscape:connector-curvature="0" />
      <path
         d="m 253.05359,761.15025 1.62,-1.13375 0.72875,-2.67375 -0.81,-0.1625 -0.485,0.9725 0.485,-4.6175 -0.81,0.16125 -0.81,4.45625 -0.9725,2.10625 0.89125,0.56625"
         style="fill:#f6ce9b;fill-opacity:1;fill-rule:nonzero;stroke:none"
         id="path6886"
         inkscape:connector-curvature="0" />
      <path
         d="m 262.63859,765.9565 0.21625,-1.945 2.37625,-2.375 0.54,0.755 -0.865,0.97125 4.53625,-1.07875 0,0.97125 -4.21125,1.62 -0.86375,1.5125 -1.72875,-0.43125"
         style="fill:#f6ce9b;fill-opacity:1;fill-rule:nonzero;stroke:none"
         id="path6888"
         inkscape:connector-curvature="0" />
      <path
         d="m 233.06484,814.019 8.835,43.22125 6.68625,-0.71625 -4.53625,-1.67125 1.67125,-0.4775 -2.38875,-40.35625 -10.2675,0"
         style="fill:#5149a7;fill-opacity:1;fill-rule:nonzero;stroke:none"
         id="path6890"
         inkscape:connector-curvature="0" />
      <path
         d="m 247.15359,813.304 c 0,0 11.22375,10.50625 9.55125,23.16125 -1.91125,10.02875 -5.97,13.85 -5.97,13.85 l -1.19375,-0.23875 1.85125,4.89625 -5.37375,-5.73125 c 0,0 6.6275,-9.13375 2.5075,-18.62625 -4.11875,-9.4925 -13.07375,-12.895 -13.07375,-12.895 0,0 7.70125,-6.98375 8.23875,-6.80625 0.53625,0.18 3.4625,2.39 3.4625,2.39"
         style="fill:#5149a7;fill-opacity:1;fill-rule:nonzero;stroke:none"
         id="path6892"
         inkscape:connector-curvature="0" />
      <path
         d="m 251.92859,759.51525 c 0,0 -18.44625,22.38625 -20.595,26.86375 0,0 -0.89625,1.6125 -0.89625,6.26875 0,4.65625 1.6125,21.85 1.6125,21.85 l 18.805,1.07375 c 0,0 -6.09,-20.955 -6.26875,-21.49125 -0.17875,-0.5375 -3.22375,-3.76125 -6.08875,-4.4775 l 15.76,-28.47625 -2.32875,-1.61125"
         style="fill:#f57933;fill-opacity:1;fill-rule:nonzero;stroke:none"
         id="path6894"
         inkscape:connector-curvature="0" />
      <path
         d="m 240.24859,787.44025 c 0,0 0.78375,2.32375 1.21625,3.73 0,0 -3.83875,-0.0812 -5.19,-1.865 l 1.4325,-3.4325 2.54125,1.5675"
         style="fill:#f6ce9b;fill-opacity:1;fill-rule:nonzero;stroke:none"
         id="path6896"
         inkscape:connector-curvature="0" />
      <path
         d="m 243.16734,780.17525 c 0,0 1.135,6.61125 0,8.11375 -1.135,1.5025 -5.0275,-1.0525 -6.65,-3.45625 -1.62125,-2.405 -1.945,-7.81375 0.81125,-8.26375 2.7575,-0.45125 5.19,1.20125 5.83875,3.60625"
         style="fill:#f6ce9b;fill-opacity:1;fill-rule:nonzero;stroke:none"
         id="path6898"
         inkscape:connector-curvature="0" />
      <path
         d="m 241.42234,792.414 c 0,0 14.78875,-9.30375 15.98125,-11.2125 1.1925,-1.9075 4.5325,-16.10125 4.5325,-16.10125 l 2.8625,0.715 c 0,0 -1.67,15.86375 -2.1475,17.53375 -0.47625,1.67 -15.0275,17.175 -18.3675,17.175 -3.33875,0 -4.53125,-4.295 -2.86125,-8.11"
         style="fill:#f57933;fill-opacity:1;fill-rule:nonzero;stroke:none"
         id="path6900"
         inkscape:connector-curvature="0" />
      <path
         d="m 235.20484,776.864 c 0,0 1.945,-2.7 5.40125,-2.05125 3.455,0.6475 4.32,-0.1075 4.32,-0.1075 0,0 -0.75625,3.77875 -3.1325,4.6425 -2.37625,0.865 -3.02375,0.64875 -3.02375,0.64875 0,0 1.29625,1.29625 1.62,2.2675 0.32375,0.9725 -1.08,-1.1875 -1.62,-0.43125 -0.54,0.755 0,2.37625 1.08,2.2675 1.08,-0.1075 0.43125,0.75625 0,1.62 -0.4325,0.865 -1.08,1.945 -1.72875,1.62 -0.6475,-0.32375 -2.91625,-1.62 -3.78,-4.32 -0.86375,-2.7 -1.08,-5.29125 0.86375,-6.15625"
         style="fill:#5149a7;fill-opacity:1;fill-rule:nonzero;stroke:none"
         id="path6902"
         inkscape:connector-curvature="0" />
      <path
         d="m 353.57984,784.96525 -42.12375,0 c -0.89375,0 -1.61875,-0.725 -1.61875,-1.62 l 0,-73.22875 c 0,-0.895 0.725,-1.62 1.61875,-1.62 l 42.12375,0 c 0.89375,0 1.62,0.725 1.62,1.62 l 0,73.22875 c 0,0.895 -0.72625,1.62 -1.62,1.62"
         style="fill:#e8ebf8;fill-opacity:1;fill-rule:nonzero;stroke:none"
         id="path6904"
         inkscape:connector-curvature="0" />
      <path
         d="m 345.69484,721.134 -26.78625,0 c -0.715,0 -1.295,-0.58125 -1.295,-1.29625 l 0,-3.88875 c 0,-0.71625 0.58,-1.29625 1.295,-1.29625 l 26.78625,0 c 0.715,0 1.29625,0.58 1.29625,1.29625 l 0,3.88875 c 0,0.715 -0.58125,1.29625 -1.29625,1.29625"
         style="fill:#84b6e5;fill-opacity:1;fill-rule:nonzero;stroke:none"
         id="path6906"
         inkscape:connector-curvature="0" />
      <path
         d="m 327.44234,757.15275 -5.83375,0 c -1.37125,0 -2.48375,-1.1125 -2.48375,-2.48375 0,-1.37125 1.1125,-2.4825 2.48375,-2.4825 l 5.83375,0 c 1.37125,0 2.48375,1.11125 2.48375,2.4825 0,1.37125 -1.1125,2.48375 -2.48375,2.48375"
         style="fill:#84b6e5;fill-opacity:1;fill-rule:nonzero;stroke:none"
         id="path6908"
         inkscape:connector-curvature="0" />
      <path
         d="m 344.29109,757.15275 -5.83375,0 c -1.37125,0 -2.4825,-1.1125 -2.4825,-2.48375 0,-1.37125 1.11125,-2.4825 2.4825,-2.4825 l 5.83375,0 c 1.3725,0 2.48375,1.11125 2.48375,2.4825 0,1.37125 -1.11125,2.48375 -2.48375,2.48375"
         style="fill:#8063b8;fill-opacity:1;fill-rule:nonzero;stroke:none"
         id="path6910"
         inkscape:connector-curvature="0" />
      <path
         d="m 348.50234,732.5815 -31.53625,0 0,-4.9675 31.53625,0 0,4.9675"
         style="fill:#fbfdfe;fill-opacity:1;fill-rule:nonzero;stroke:none"
         id="path6912"
         inkscape:connector-curvature="0" />
      <path
         d="m 348.50234,741.0065 -31.53625,0 0,-4.9675 31.53625,0 0,4.9675"
         style="fill:#fbfdfe;fill-opacity:1;fill-rule:nonzero;stroke:none"
         id="path6914"
         inkscape:connector-curvature="0" />
      <path
         d="m 341.91484,745.27275 -18.145,0 0,-1.13375 18.145,0 0,1.13375"
         style="fill:#d4d3ee;fill-opacity:1;fill-rule:nonzero;stroke:none"
         id="path6916"
         inkscape:connector-curvature="0" />
      <path
         d="m 448.67859,770.81525 -56.70375,0 c -3.49,0 -6.3175,-2.8275 -6.3175,-6.3175 0,-3.48875 2.8275,-6.31875 6.3175,-6.31875 l 56.70375,0 c 3.48875,0 6.3175,2.83 6.3175,6.31875 0,3.49 -2.82875,6.3175 -6.3175,6.3175"
         style="fill:#8063b8;fill-opacity:1;fill-rule:nonzero;stroke:none"
         id="path6918"
         inkscape:connector-curvature="0" />
      <path
         d="m 399.58984,717.24525 -35.31875,0 c -2.8625,0 -5.18375,-2.32125 -5.18375,-5.18375 0,-2.86375 2.32125,-5.185 5.18375,-5.185 l 35.31875,0 c 2.8625,0 5.185,2.32125 5.185,5.185 0,2.8625 -2.3225,5.18375 -5.185,5.18375"
         style="fill:#e8ebf8;fill-opacity:1;fill-rule:nonzero;stroke:none"
         id="path6920"
         inkscape:connector-curvature="0" />
      <path
         d="m 372.69734,712.0615 c 0,0.89375 -0.72625,1.62 -1.62125,1.62 -0.895,0 -1.62,-0.72625 -1.62,-1.62 0,-0.895 0.725,-1.62 1.62,-1.62 0.895,0 1.62125,0.725 1.62125,1.62"
         style="fill:#fabc29;fill-opacity:1;fill-rule:nonzero;stroke:none"
         id="path6922"
         inkscape:connector-curvature="0" />
      <path
         d="m 383.82109,712.0615 c 0,0.89375 -0.725,1.62 -1.62,1.62 -0.895,0 -1.62125,-0.72625 -1.62125,-1.62 0,-0.895 0.72625,-1.62 1.62125,-1.62 0.895,0 1.62,0.725 1.62,1.62"
         style="fill:#82c92a;fill-opacity:1;fill-rule:nonzero;stroke:none"
         id="path6924"
         inkscape:connector-curvature="0" />
      <path
         d="m 394.08109,712.0615 c 0,0.89375 -0.725,1.62 -1.62,1.62 -0.895,0 -1.62,-0.72625 -1.62,-1.62 0,-0.895 0.725,-1.62 1.62,-1.62 0.895,0 1.62,0.725 1.62,1.62"
         style="fill:#eb3e1f;fill-opacity:1;fill-rule:nonzero;stroke:none"
         id="path6926"
         inkscape:connector-curvature="0" />
      <path
         d="m 267.54734,754.25775 c 0,2.17875 -1.76625,3.94625 -3.94625,3.94625 -2.17875,0 -3.94625,-1.7675 -3.94625,-3.94625 0,-2.18 1.7675,-3.94625 3.94625,-3.94625 2.18,0 3.94625,1.76625 3.94625,3.94625"
         style="fill:#ffffff;fill-opacity:1;fill-rule:nonzero;stroke:none"
         id="path6928"
         inkscape:connector-curvature="0" />
      <path
         d="m 263.66109,757.16775 c -1.6,0 -2.89875,-1.2975 -2.89875,-2.89875 0,-1.6 1.29875,-2.8975 2.89875,-2.8975 1.60125,0 2.89875,1.2975 2.89875,2.8975 0,1.60125 -1.2975,2.89875 -2.89875,2.89875 z m 4.03125,-7.67625 -0.695,0 -1,-1.4075 c -0.0775,-0.11125 -0.20625,-0.17625 -0.3425,-0.17625 l -3.9875,0 c -0.13625,0 -0.26375,0.065 -0.3425,0.17625 l -0.99875,1.4075 -0.69625,0 c -1.08125,0 -1.96625,0.885 -1.96625,1.96625 l 0,5.72125 c 0,1.08125 0.885,1.96625 1.96625,1.96625 l 8.0625,0 c 1.0825,0 1.96625,-0.885 1.96625,-1.96625 l 0,-5.72125 c 0,-1.08125 -0.88375,-1.96625 -1.96625,-1.96625"
         style="fill:#8063b8;fill-opacity:1;fill-rule:nonzero;stroke:none"
         id="path6930"
         inkscape:connector-curvature="0" />
      <path
         d="m 265.57734,754.269 c 0,1.05875 -0.8575,1.91625 -1.91625,1.91625 -1.05875,0 -1.91625,-0.8575 -1.91625,-1.91625 0,-1.0575 0.8575,-1.915 1.91625,-1.915 1.05875,0 1.91625,0.8575 1.91625,1.915"
         style="fill:#84b6e5;fill-opacity:1;fill-rule:nonzero;stroke:none"
         id="path6932"
         inkscape:connector-curvature="0" />
      <path
         d="m 404.71984,750.6915 -29.64875,0 c -1.41125,0 -2.555,-1.14375 -2.555,-2.55625 l 0,-17.72 c 0,-1.41125 1.14375,-2.555 2.555,-2.555 l 29.64875,0 c 1.41125,0 2.55625,1.14375 2.55625,2.555 l 0,17.72 c 0,1.4125 -1.145,2.55625 -2.55625,2.55625"
         style="fill:#e8ebf8;fill-opacity:1;fill-rule:nonzero;stroke:none"
         id="path6934"
         inkscape:connector-curvature="0" />
      <path
         d="m 389.92984,739.099 -0.0688,0 c -0.155,0 -0.3075,-0.0388 -0.4425,-0.115 l -13.39875,-7.44375 c -0.44125,-0.24375 -0.60125,-0.8 -0.355,-1.24125 0.245,-0.44125 0.8,-0.6 1.2425,-0.355 l 12.9875,7.21625 12.99,-7.21625 c 0.44125,-0.245 0.99625,-0.0862 1.24125,0.355 0.245,0.44125 0.0863,0.9975 -0.355,1.24125 l -13.39875,7.44375 c -0.135,0.0762 -0.2875,0.115 -0.4425,0.115"
         style="fill:#ef363e;fill-opacity:1;fill-rule:nonzero;stroke:none"
         id="path6936"
         inkscape:connector-curvature="0" />
      <path
         d="m 455.96859,748.3515 -38.55875,0 c -1.2525,0 -2.2675,-1.01625 -2.2675,-2.26875 l 0,-51.195 c 0,-1.2525 1.015,-2.2675 2.2675,-2.2675 l 38.55875,0 c 1.2525,0 2.2675,1.015 2.2675,2.2675 l 0,51.195 c 0,1.2525 -1.015,2.26875 -2.2675,2.26875"
         style="fill:#5149a7;fill-opacity:1;fill-rule:nonzero;stroke:none"
         id="path6938"
         inkscape:connector-curvature="0" />
      <path
         d="m 424.77109,700.09025 -2.87125,0 c -0.15375,0 -0.2775,-0.2475 -0.2775,-0.555 0,-0.30625 0.12375,-0.555 0.2775,-0.555 l 2.87125,0 c 0.1525,0 0.275,0.24875 0.275,0.555 0,0.3075 -0.1225,0.555 -0.275,0.555"
         style="fill:#5fccf5;fill-opacity:1;fill-rule:nonzero;stroke:none"
         id="path6940"
         inkscape:connector-curvature="0" />
      <path
         d="m 442.54609,700.09025 -16.42375,0 c -0.1525,0 -0.2775,-0.2475 -0.2775,-0.555 0,-0.30625 0.125,-0.555 0.2775,-0.555 l 16.42375,0 c 0.15375,0 0.27625,0.24875 0.27625,0.555 0,0.3075 -0.1225,0.555 -0.27625,0.555"
         style="fill:#5fccf5;fill-opacity:1;fill-rule:nonzero;stroke:none"
         id="path6942"
         inkscape:connector-curvature="0" />
      <path
         d="m 431.36109,702.38525 -5.23875,0 c -0.1525,0 -0.2775,-0.24875 -0.2775,-0.555 0,-0.30625 0.125,-0.555 0.2775,-0.555 l 5.23875,0 c 0.1525,0 0.2775,0.24875 0.2775,0.555 0,0.30625 -0.125,0.555 -0.2775,0.555"
         style="fill:#f030a2;fill-opacity:1;fill-rule:nonzero;stroke:none"
         id="path6944"
         inkscape:connector-curvature="0" />
      <path
         d="m 439.97859,702.38525 -7.55,0 c -0.1525,0 -0.2775,-0.24875 -0.2775,-0.555 0,-0.30625 0.125,-0.555 0.2775,-0.555 l 7.55,0 c 0.1525,0 0.27625,0.24875 0.27625,0.555 0,0.30625 -0.12375,0.555 -0.27625,0.555"
         style="fill:#e8ebf8;fill-opacity:1;fill-rule:nonzero;stroke:none"
         id="path6946"
         inkscape:connector-curvature="0" />
      <path
         d="m 442.54609,713.55775 -16.42375,0 c -0.1525,0 -0.2775,-0.24875 -0.2775,-0.555 0,-0.30625 0.125,-0.555 0.2775,-0.555 l 16.42375,0 c 0.15375,0 0.27625,0.24875 0.27625,0.555 0,0.30625 -0.1225,0.555 -0.27625,0.555"
         style="fill:#e8ebf8;fill-opacity:1;fill-rule:nonzero;stroke:none"
         id="path6948"
         inkscape:connector-curvature="0" />
      <path
         d="m 424.77109,715.85275 -2.87125,0 c -0.15375,0 -0.2775,-0.24875 -0.2775,-0.555 0,-0.30625 0.12375,-0.555 0.2775,-0.555 l 2.87125,0 c 0.1525,0 0.275,0.24875 0.275,0.555 0,0.30625 -0.1225,0.555 -0.275,0.555"
         style="fill:#5fccf5;fill-opacity:1;fill-rule:nonzero;stroke:none"
         id="path6950"
         inkscape:connector-curvature="0" />
      <path
         d="m 431.36109,715.85275 -5.23875,0 c -0.1525,0 -0.2775,-0.24875 -0.2775,-0.555 0,-0.30625 0.125,-0.555 0.2775,-0.555 l 5.23875,0 c 0.1525,0 0.2775,0.24875 0.2775,0.555 0,0.30625 -0.125,0.555 -0.2775,0.555"
         style="fill:#e8ebf8;fill-opacity:1;fill-rule:nonzero;stroke:none"
         id="path6952"
         inkscape:connector-curvature="0" />
      <path
         d="m 439.97859,715.85275 -7.55,0 c -0.1525,0 -0.2775,-0.24875 -0.2775,-0.555 0,-0.30625 0.125,-0.555 0.2775,-0.555 l 7.55,0 c 0.1525,0 0.27625,0.24875 0.27625,0.555 0,0.30625 -0.12375,0.555 -0.27625,0.555"
         style="fill:#f030a2;fill-opacity:1;fill-rule:nonzero;stroke:none"
         id="path6954"
         inkscape:connector-curvature="0" />
      <path
         d="m 446.61984,704.68025 -20.4975,0 c -0.1525,0 -0.2775,-0.24875 -0.2775,-0.555 0,-0.3075 0.125,-0.55625 0.2775,-0.55625 l 20.4975,0 c 0.1525,0 0.27625,0.24875 0.27625,0.55625 0,0.30625 -0.12375,0.555 -0.27625,0.555"
         style="fill:#f030a2;fill-opacity:1;fill-rule:nonzero;stroke:none"
         id="path6956"
         inkscape:connector-curvature="0" />
      <path
         d="m 442.32359,706.97525 -4.7725,0 c -0.16125,0 -0.2925,-0.13125 -0.2925,-0.2925 l 0,-0.52625 c 0,-0.16125 0.13125,-0.2925 0.2925,-0.2925 l 4.7725,0 c 0.1625,0 0.2925,0.13125 0.2925,0.2925 l 0,0.52625 c 0,0.16125 -0.13,0.2925 -0.2925,0.2925"
         style="fill:#5fccf5;fill-opacity:1;fill-rule:nonzero;stroke:none"
         id="path6958"
         inkscape:connector-curvature="0" />
      <path
         d="m 432.93109,706.97525 -6.80875,0 c -0.1525,0 -0.2775,-0.24875 -0.2775,-0.55625 0,-0.30625 0.125,-0.555 0.2775,-0.555 l 6.80875,0 c 0.1525,0 0.27625,0.24875 0.27625,0.555 0,0.3075 -0.12375,0.55625 -0.27625,0.55625"
         style="fill:#e8ebf8;fill-opacity:1;fill-rule:nonzero;stroke:none"
         id="path6960"
         inkscape:connector-curvature="0" />
      <path
         d="m 436.55484,706.97525 -2.70125,0 c -0.1525,0 -0.275,-0.24875 -0.275,-0.55625 0,-0.30625 0.1225,-0.555 0.275,-0.555 l 2.70125,0 c 0.1525,0 0.27625,0.24875 0.27625,0.555 0,0.3075 -0.12375,0.55625 -0.27625,0.55625"
         style="fill:#5fccf5;fill-opacity:1;fill-rule:nonzero;stroke:none"
         id="path6962"
         inkscape:connector-curvature="0" />
      <path
         d="m 424.77109,709.19275 -2.87125,0 c -0.15375,0 -0.2775,-0.24875 -0.2775,-0.555 0,-0.30625 0.12375,-0.555 0.2775,-0.555 l 2.87125,0 c 0.1525,0 0.275,0.24875 0.275,0.555 0,0.30625 -0.1225,0.555 -0.275,0.555"
         style="fill:#e8ebf8;fill-opacity:1;fill-rule:nonzero;stroke:none"
         id="path6964"
         inkscape:connector-curvature="0" />
      <path
         d="m 446.61984,709.19275 -20.4975,0 c -0.1525,0 -0.2775,-0.24875 -0.2775,-0.555 0,-0.30625 0.125,-0.555 0.2775,-0.555 l 20.4975,0 c 0.1525,0 0.27625,0.24875 0.27625,0.555 0,0.30625 -0.12375,0.555 -0.27625,0.555"
         style="fill:#e8ebf8;fill-opacity:1;fill-rule:nonzero;stroke:none"
         id="path6966"
         inkscape:connector-curvature="0" />
      <path
         d="m 424.77109,717.97775 -2.87125,0 c -0.15375,0 -0.2775,-0.2475 -0.2775,-0.555 0,-0.30625 0.12375,-0.555 0.2775,-0.555 l 2.87125,0 c 0.1525,0 0.275,0.24875 0.275,0.555 0,0.3075 -0.1225,0.555 -0.275,0.555"
         style="fill:#e8ebf8;fill-opacity:1;fill-rule:nonzero;stroke:none"
         id="path6968"
         inkscape:connector-curvature="0" />
      <path
         d="m 444.32609,717.97775 -6.72375,0 c -0.19,0 -0.34375,-0.15375 -0.34375,-0.34375 l 0,-0.4225 c 0,-0.19 0.15375,-0.34375 0.34375,-0.34375 l 6.72375,0 c 0.19125,0 0.345,0.15375 0.345,0.34375 l 0,0.4225 c 0,0.19 -0.15375,0.34375 -0.345,0.34375"
         style="fill:#e8ebf8;fill-opacity:1;fill-rule:nonzero;stroke:none"
         id="path6970"
         inkscape:connector-curvature="0" />
      <path
         d="m 432.93109,717.97775 -6.80875,0 c -0.1525,0 -0.2775,-0.2475 -0.2775,-0.555 0,-0.30625 0.125,-0.555 0.2775,-0.555 l 6.80875,0 c 0.1525,0 0.27625,0.24875 0.27625,0.555 0,0.3075 -0.12375,0.555 -0.27625,0.555"
         style="fill:#e8ebf8;fill-opacity:1;fill-rule:nonzero;stroke:none"
         id="path6972"
         inkscape:connector-curvature="0" />
      <path
         d="m 436.55484,717.97775 -2.70125,0 c -0.1525,0 -0.275,-0.2475 -0.275,-0.555 0,-0.30625 0.1225,-0.555 0.275,-0.555 l 2.70125,0 c 0.1525,0 0.27625,0.24875 0.27625,0.555 0,0.3075 -0.12375,0.555 -0.27625,0.555"
         style="fill:#e8ebf8;fill-opacity:1;fill-rule:nonzero;stroke:none"
         id="path6974"
         inkscape:connector-curvature="0" />
      <path
         d="m 424.77109,720.1965 -2.87125,0 c -0.15375,0 -0.2775,-0.24875 -0.2775,-0.555 0,-0.3075 0.12375,-0.555 0.2775,-0.555 l 2.87125,0 c 0.1525,0 0.275,0.2475 0.275,0.555 0,0.30625 -0.1225,0.555 -0.275,0.555"
         style="fill:#fabd41;fill-opacity:1;fill-rule:nonzero;stroke:none"
         id="path6976"
         inkscape:connector-curvature="0" />
      <path
         d="m 429.67109,720.1965 -3.54875,0 c -0.1525,0 -0.2775,-0.24875 -0.2775,-0.555 0,-0.3075 0.125,-0.555 0.2775,-0.555 l 3.54875,0 c 0.1525,0 0.27625,0.2475 0.27625,0.555 0,0.30625 -0.12375,0.555 -0.27625,0.555"
         style="fill:#5fccf5;fill-opacity:1;fill-rule:nonzero;stroke:none"
         id="path6978"
         inkscape:connector-curvature="0" />
      <path
         d="m 421.89984,711.48775 c -0.15375,0 -0.2775,-0.24875 -0.2775,-0.555 0,-0.3075 0.12375,-0.555 0.2775,-0.555 l 2.87125,0 c 0.1525,0 0.275,0.2475 0.275,0.555 0,0.30625 -0.1225,0.555 -0.275,0.555"
         style="fill:#5fccf5;fill-opacity:1;fill-rule:nonzero;stroke:none"
         id="path6980"
         inkscape:connector-curvature="0" />
      <path
         d="m 445.26734,711.48775 -7.6425,0 c -0.2025,0 -0.36625,-0.16375 -0.36625,-0.36625 l 0,-0.37875 c 0,-0.20125 0.16375,-0.365 0.36625,-0.365 l 7.6425,0 c 0.2025,0 0.36625,0.16375 0.36625,0.365 l 0,0.37875 c 0,0.2025 -0.16375,0.36625 -0.36625,0.36625"
         style="fill:#e8ebf8;fill-opacity:1;fill-rule:nonzero;stroke:none"
         id="path6982"
         inkscape:connector-curvature="0" />
      <path
         d="m 432.93109,711.48775 -6.80875,0 c -0.1525,0 -0.2775,-0.24875 -0.2775,-0.555 0,-0.3075 0.125,-0.555 0.2775,-0.555 l 6.80875,0 c 0.1525,0 0.27625,0.2475 0.27625,0.555 0,0.30625 -0.12375,0.555 -0.27625,0.555"
         style="fill:#fabd41;fill-opacity:1;fill-rule:nonzero;stroke:none"
         id="path6984"
         inkscape:connector-curvature="0" />
      <path
         d="m 436.55484,711.48775 -2.70125,0 c -0.1525,0 -0.275,-0.24875 -0.275,-0.555 0,-0.3075 0.1225,-0.555 0.275,-0.555 l 2.70125,0 c 0.1525,0 0.27625,0.2475 0.27625,0.555 0,0.30625 -0.12375,0.555 -0.27625,0.555"
         style="fill:#fabd41;fill-opacity:1;fill-rule:nonzero;stroke:none"
         id="path6986"
         inkscape:connector-curvature="0" />
      <path
         d="m 442.54609,722.55525 -16.42375,0 c -0.1525,0 -0.2775,-0.24875 -0.2775,-0.555 0,-0.30625 0.125,-0.555 0.2775,-0.555 l 16.42375,0 c 0.15375,0 0.27625,0.24875 0.27625,0.555 0,0.30625 -0.1225,0.555 -0.27625,0.555"
         style="fill:#e8ebf8;fill-opacity:1;fill-rule:nonzero;stroke:none"
         id="path6988"
         inkscape:connector-curvature="0" />
      <path
         d="m 431.36109,724.85025 -5.23875,0 c -0.1525,0 -0.2775,-0.24875 -0.2775,-0.555 0,-0.3075 0.125,-0.555 0.2775,-0.555 l 5.23875,0 c 0.1525,0 0.2775,0.2475 0.2775,0.555 0,0.30625 -0.125,0.555 -0.2775,0.555"
         style="fill:#e8ebf8;fill-opacity:1;fill-rule:nonzero;stroke:none"
         id="path6990"
         inkscape:connector-curvature="0" />
      <path
         d="m 439.97859,724.85025 -7.55,0 c -0.1525,0 -0.2775,-0.24875 -0.2775,-0.555 0,-0.3075 0.125,-0.555 0.2775,-0.555 l 7.55,0 c 0.1525,0 0.27625,0.2475 0.27625,0.555 0,0.30625 -0.12375,0.555 -0.27625,0.555"
         style="fill:#e8ebf8;fill-opacity:1;fill-rule:nonzero;stroke:none"
         id="path6992"
         inkscape:connector-curvature="0" />
      <path
         d="m 442.54609,736.02275 -16.42375,0 c -0.1525,0 -0.2775,-0.2475 -0.2775,-0.555 0,-0.30625 0.125,-0.555 0.2775,-0.555 l 16.42375,0 c 0.15375,0 0.27625,0.24875 0.27625,0.555 0,0.3075 -0.1225,0.555 -0.27625,0.555"
         style="fill:#e8ebf8;fill-opacity:1;fill-rule:nonzero;stroke:none"
         id="path6994"
         inkscape:connector-curvature="0" />
      <path
         d="m 424.77109,738.31775 -2.87125,0 c -0.15375,0 -0.2775,-0.2475 -0.2775,-0.555 0,-0.30625 0.12375,-0.555 0.2775,-0.555 l 2.87125,0 c 0.1525,0 0.275,0.24875 0.275,0.555 0,0.3075 -0.1225,0.555 -0.275,0.555"
         style="fill:#f030a2;fill-opacity:1;fill-rule:nonzero;stroke:none"
         id="path6996"
         inkscape:connector-curvature="0" />
      <path
         d="m 431.36109,738.31775 -5.23875,0 c -0.1525,0 -0.2775,-0.2475 -0.2775,-0.555 0,-0.30625 0.125,-0.555 0.2775,-0.555 l 5.23875,0 c 0.1525,0 0.2775,0.24875 0.2775,0.555 0,0.3075 -0.125,0.555 -0.2775,0.555"
         style="fill:#5fccf5;fill-opacity:1;fill-rule:nonzero;stroke:none"
         id="path6998"
         inkscape:connector-curvature="0" />
      <path
         d="m 439.97859,738.31775 -7.55,0 c -0.1525,0 -0.2775,-0.2475 -0.2775,-0.555 0,-0.30625 0.125,-0.555 0.2775,-0.555 l 7.55,0 c 0.1525,0 0.27625,0.24875 0.27625,0.555 0,0.3075 -0.12375,0.555 -0.27625,0.555"
         style="fill:#e8ebf8;fill-opacity:1;fill-rule:nonzero;stroke:none"
         id="path7000"
         inkscape:connector-curvature="0" />
      <path
         d="m 424.77109,727.14525 -2.87125,0 c -0.15375,0 -0.2775,-0.24875 -0.2775,-0.555 0,-0.3075 0.12375,-0.555 0.2775,-0.555 l 2.87125,0 c 0.1525,0 0.275,0.2475 0.275,0.555 0,0.30625 -0.1225,0.555 -0.275,0.555"
         style="fill:#f030a2;fill-opacity:1;fill-rule:nonzero;stroke:none"
         id="path7002"
         inkscape:connector-curvature="0" />
      <path
         d="m 440.78359,727.14525 -14.60375,0 c -0.185,0 -0.335,-0.15 -0.335,-0.33375 l 0,-0.4425 c 0,-0.185 0.15,-0.33375 0.335,-0.33375 l 14.60375,0 c 0.185,0 0.335,0.14875 0.335,0.33375 l 0,0.4425 c 0,0.18375 -0.15,0.33375 -0.335,0.33375"
         style="fill:#f030a2;fill-opacity:1;fill-rule:nonzero;stroke:none"
         id="path7004"
         inkscape:connector-curvature="0" />
      <path
         d="m 424.77109,729.44025 -2.87125,0 c -0.15375,0 -0.2775,-0.24875 -0.2775,-0.55625 0,-0.30625 0.12375,-0.55375 0.2775,-0.55375 l 2.87125,0 c 0.1525,0 0.275,0.2475 0.275,0.55375 0,0.3075 -0.1225,0.55625 -0.275,0.55625"
         style="fill:#e8ebf8;fill-opacity:1;fill-rule:nonzero;stroke:none"
         id="path7006"
         inkscape:connector-curvature="0" />
      <path
         d="m 432.93109,729.44025 -6.80875,0 c -0.1525,0 -0.2775,-0.24875 -0.2775,-0.55625 0,-0.30625 0.125,-0.55375 0.2775,-0.55375 l 6.80875,0 c 0.1525,0 0.27625,0.2475 0.27625,0.55375 0,0.3075 -0.12375,0.55625 -0.27625,0.55625"
         style="fill:#e8ebf8;fill-opacity:1;fill-rule:nonzero;stroke:none"
         id="path7008"
         inkscape:connector-curvature="0" />
      <path
         d="m 436.55484,729.44025 -2.70125,0 c -0.1525,0 -0.275,-0.24875 -0.275,-0.55625 0,-0.30625 0.1225,-0.55375 0.275,-0.55375 l 2.70125,0 c 0.1525,0 0.27625,0.2475 0.27625,0.55375 0,0.3075 -0.12375,0.55625 -0.27625,0.55625"
         style="fill:#e8ebf8;fill-opacity:1;fill-rule:nonzero;stroke:none"
         id="path7010"
         inkscape:connector-curvature="0" />
      <path
         d="m 424.77109,731.65775 -2.87125,0 c -0.15375,0 -0.2775,-0.24875 -0.2775,-0.555 0,-0.30625 0.12375,-0.555 0.2775,-0.555 l 2.87125,0 c 0.1525,0 0.275,0.24875 0.275,0.555 0,0.30625 -0.1225,0.555 -0.275,0.555"
         style="fill:#e8ebf8;fill-opacity:1;fill-rule:nonzero;stroke:none"
         id="path7012"
         inkscape:connector-curvature="0" />
      <path
         d="m 444.70234,731.65775 -18.4825,0 c -0.20625,0 -0.375,-0.1675 -0.375,-0.37375 l 0,-0.36125 c 0,-0.2075 0.16875,-0.375 0.375,-0.375 l 18.4825,0 c 0.2075,0 0.375,0.1675 0.375,0.375 l 0,0.36125 c 0,0.20625 -0.1675,0.37375 -0.375,0.37375"
         style="fill:#e8ebf8;fill-opacity:1;fill-rule:nonzero;stroke:none"
         id="path7014"
         inkscape:connector-curvature="0" />
      <path
         d="m 424.77109,740.44275 -2.87125,0 c -0.15375,0 -0.2775,-0.24875 -0.2775,-0.555 0,-0.30625 0.12375,-0.555 0.2775,-0.555 l 2.87125,0 c 0.1525,0 0.275,0.24875 0.275,0.555 0,0.30625 -0.1225,0.555 -0.275,0.555"
         style="fill:#e8ebf8;fill-opacity:1;fill-rule:nonzero;stroke:none"
         id="path7016"
         inkscape:connector-curvature="0" />
      <path
         d="m 446.59859,740.44275 -9.0625,0 c -0.1525,0 -0.2775,-0.24875 -0.2775,-0.555 0,-0.30625 0.125,-0.555 0.2775,-0.555 l 9.0625,0 c 0.1525,0 0.275,0.24875 0.275,0.555 0,0.30625 -0.1225,0.555 -0.275,0.555"
         style="fill:#e8ebf8;fill-opacity:1;fill-rule:nonzero;stroke:none"
         id="path7018"
         inkscape:connector-curvature="0" />
      <path
         d="m 432.93109,740.44275 -6.80875,0 c -0.1525,0 -0.2775,-0.24875 -0.2775,-0.555 0,-0.30625 0.125,-0.555 0.2775,-0.555 l 6.80875,0 c 0.1525,0 0.27625,0.24875 0.27625,0.555 0,0.30625 -0.12375,0.555 -0.27625,0.555"
         style="fill:#e8ebf8;fill-opacity:1;fill-rule:nonzero;stroke:none"
         id="path7020"
         inkscape:connector-curvature="0" />
      <path
         d="m 436.55484,740.44275 -2.70125,0 c -0.1525,0 -0.275,-0.24875 -0.275,-0.555 0,-0.30625 0.1225,-0.555 0.275,-0.555 l 2.70125,0 c 0.1525,0 0.27625,0.24875 0.27625,0.555 0,0.30625 -0.12375,0.555 -0.27625,0.555"
         style="fill:#e8ebf8;fill-opacity:1;fill-rule:nonzero;stroke:none"
         id="path7022"
         inkscape:connector-curvature="0" />
      <path
         d="m 438.24609,742.6615 -12.09625,0 c -0.1675,0 -0.305,-0.13625 -0.305,-0.30375 l 0,-0.5025 c 0,-0.1675 0.1375,-0.30375 0.305,-0.30375 l 12.09625,0 c 0.1675,0 0.30375,0.13625 0.30375,0.30375 l 0,0.5025 c 0,0.1675 -0.13625,0.30375 -0.30375,0.30375"
         style="fill:#fabd41;fill-opacity:1;fill-rule:nonzero;stroke:none"
         id="path7024"
         inkscape:connector-curvature="0" />
      <path
         d="m 445.74984,733.95275 -8.115,0 c -0.2075,0 -0.37625,-0.16875 -0.37625,-0.37625 l 0,-0.3575 c 0,-0.2075 0.16875,-0.37625 0.37625,-0.37625 l 8.115,0 c 0.2075,0 0.37625,0.16875 0.37625,0.37625 l 0,0.3575 c 0,0.2075 -0.16875,0.37625 -0.37625,0.37625"
         style="fill:#f030a2;fill-opacity:1;fill-rule:nonzero;stroke:none"
         id="path7026"
         inkscape:connector-curvature="0" />
      <path
         d="m 432.93109,733.95275 -6.80875,0 c -0.1525,0 -0.2775,-0.24875 -0.2775,-0.555 0,-0.30625 0.125,-0.555 0.2775,-0.555 l 6.80875,0 c 0.1525,0 0.27625,0.24875 0.27625,0.555 0,0.30625 -0.12375,0.555 -0.27625,0.555"
         style="fill:#fabd41;fill-opacity:1;fill-rule:nonzero;stroke:none"
         id="path7028"
         inkscape:connector-curvature="0" />
      <path
         d="m 436.55484,733.95275 -2.70125,0 c -0.1525,0 -0.275,-0.24875 -0.275,-0.555 0,-0.30625 0.1225,-0.555 0.275,-0.555 l 2.70125,0 c 0.1525,0 0.27625,0.24875 0.27625,0.555 0,0.30625 -0.12375,0.555 -0.27625,0.555"
         style="fill:#fabd41;fill-opacity:1;fill-rule:nonzero;stroke:none"
         id="path7030"
         inkscape:connector-curvature="0" />
      <path
         d="m 463.83484,693.7715 c 0,5.01 -4.0625,9.07125 -9.0725,9.07125 -5.01125,0 -9.07375,-4.06125 -9.07375,-9.07125 0,-5.01125 4.0625,-9.0725 9.07375,-9.0725 5.01,0 9.0725,4.06125 9.0725,9.0725"
         style="fill:#d93da7;fill-opacity:1;fill-rule:nonzero;stroke:none"
         id="path7032"
         inkscape:connector-curvature="0" />
      <path
         d="m 454.10484,692.92025 -3.60375,1.32 3.60375,1.30875 0,1.35375 -5.1525,-1.95875 0,-1.4075 5.1525,-1.9575 0,1.34125"
         style="fill:#fbfdfe;fill-opacity:1;fill-rule:nonzero;stroke:none"
         id="path7034"
         inkscape:connector-curvature="0" />
      <path
         d="m 455.28109,691.579 5.15125,1.9575 0,1.4075 -5.15125,1.95875 0,-1.35375 3.60375,-1.30875 -3.60375,-1.32 0,-1.34125"
         style="fill:#fbfdfe;fill-opacity:1;fill-rule:nonzero;stroke:none"
         id="path7036"
         inkscape:connector-curvature="0" />
      <path
         d="m 404.59234,846.7465 c 0,5.43625 -4.40625,9.84125 -9.84125,9.84125 -5.435,0 -9.84125,-4.405 -9.84125,-9.84125 0,-5.43375 4.40625,-9.84125 9.84125,-9.84125 5.435,0 9.84125,4.4075 9.84125,9.84125"
         style="fill:#fabc29;fill-opacity:1;fill-rule:nonzero;stroke:none"
         id="path7038"
         inkscape:connector-curvature="0" />
      <path
         d="m 393.43109,846.98025 c 0,0.895 0.365,1.3425 1.09375,1.3425 0.38125,0 0.6725,-0.135 0.8725,-0.40375 0.19875,-0.27 0.32,-0.7075 0.3625,-1.315 l 0.0825,-1.40625 c -0.21625,-0.0462 -0.46,-0.07 -0.7325,-0.07 -0.53,0 -0.9425,0.165 -1.2375,0.49625 -0.29375,0.33125 -0.44125,0.7825 -0.44125,1.35625 z m 6.51625,-0.79625 c 0,0.61125 -0.0975,1.17 -0.2925,1.6775 -0.195,0.50625 -0.47125,0.905 -0.8275,1.1925 -0.35625,0.29 -0.77,0.43375 -1.24125,0.43375 -0.31375,0 -0.59125,-0.0762 -0.83375,-0.22625 -0.2425,-0.15125 -0.415,-0.34875 -0.52125,-0.595 l -0.1025,0 c -0.4575,0.54625 -1.04125,0.82125 -1.75,0.82125 -0.75,0 -1.3425,-0.22625 -1.77625,-0.6775 -0.43125,-0.4525 -0.64875,-1.07125 -0.64875,-1.85625 0,-0.895 0.28375,-1.61625 0.8525,-2.16375 0.57,-0.54625 1.31125,-0.82 2.22875,-0.82 0.365,0 0.76625,0.0338 1.20625,0.105 0.4375,0.0688 0.8,0.15375 1.085,0.25125 l -0.14625,3.11125 c 0,0.59 0.16,0.885 0.4825,0.885 0.27125,0 0.4875,-0.19875 0.65,-0.595 0.16125,-0.3975 0.24125,-0.91625 0.24125,-1.5575 0,-0.68125 -0.1425,-1.285 -0.4275,-1.81 -0.2825,-0.52375 -0.68375,-0.9225 -1.19875,-1.19875 -0.51625,-0.275 -1.10375,-0.41375 -1.76625,-0.41375 -0.85625,0 -1.60125,0.17625 -2.23375,0.5275 -0.6325,0.3525 -1.11625,0.86125 -1.45375,1.525 -0.33625,0.66375 -0.50625,1.43 -0.50625,2.30125 0,1.17 0.31375,2.06875 0.93875,2.695 0.62625,0.625 1.5325,0.93875 2.72125,0.93875 0.44875,0 0.9425,-0.05 1.4825,-0.15 0.53875,-0.1 1.07,-0.24625 1.59125,-0.43625 l 0,1.2225 c -0.90875,0.385 -1.91625,0.57875 -3.0225,0.57875 -1.6125,0 -2.87,-0.42375 -3.77125,-1.2725 -0.9025,-0.84875 -1.3525,-2.02875 -1.3525,-3.53875 0,-1.0475 0.23125,-2 0.69125,-2.85375 0.46,-0.85625 1.115,-1.52625 1.96625,-2.0125 0.85,-0.485 1.82875,-0.72875 2.9375,-0.72875 0.9325,0 1.76625,0.1925 2.5,0.57375 0.73375,0.38125 1.30125,0.925 1.69875,1.62875 0.39875,0.705 0.59875,1.5175 0.59875,2.4375"
         style="fill:#ffffff;fill-opacity:1;fill-rule:nonzero;stroke:none"
         id="path7040"
         inkscape:connector-curvature="0" />
      <path
         d="m 345.29609,676.49275 -61.74,0 c -5.015,0 -9.08,4.065 -9.08,9.07875 0,5.015 4.065,9.08 9.08,9.08 l 4.54,0 4.38875,4.3875 4.3875,-4.3875 48.42375,0 c 5.01375,0 9.07875,-4.065 9.07875,-9.08 0,-5.01375 -4.065,-9.07875 -9.07875,-9.07875"
         style="fill:#8063b8;fill-opacity:1;fill-rule:nonzero;stroke:none"
         id="path7042"
         inkscape:connector-curvature="0" />
      <path
         d="m 327.62984,688.4665 -40.62625,0 c -0.56125,0 -1.01625,-0.455 -1.01625,-1.01625 0,-0.56 0.455,-1.015 1.01625,-1.015 l 40.62625,0 c 0.56,0 1.015,0.455 1.015,1.015 0,0.56125 -0.455,1.01625 -1.015,1.01625"
         style="fill:#ffffff;fill-opacity:1;fill-rule:nonzero;stroke:none"
         id="path7044"
         inkscape:connector-curvature="0" />
      <path
         d="m 314.93359,682.88025 -27.93,0 c -0.56125,0 -1.01625,-0.455 -1.01625,-1.015 0,-0.56125 0.455,-1.01625 1.01625,-1.01625 l 27.93,0 c 0.56125,0 1.015,0.455 1.015,1.01625 0,0.56 -0.45375,1.015 -1.015,1.015"
         style="fill:#ffffff;fill-opacity:1;fill-rule:nonzero;stroke:none"
         id="path7046"
         inkscape:connector-curvature="0" />
      <path
         d="m 429.68109,791.5415 c 0,0 -0.755,2.24125 -1.1725,3.59625 0,0 3.7025,-0.0775 5.005,-1.7975 l -1.38125,-3.31125 -2.45125,1.5125"
         style="fill:#f6ce9b;fill-opacity:1;fill-rule:nonzero;stroke:none"
         id="path7048"
         inkscape:connector-curvature="0" />
      <path
         d="m 429.12484,853.35525 0.3175,1.40875 2.04375,0.115 -0.4325,-1.72625 -1.92875,0.2025"
         style="fill:#f68965;fill-opacity:1;fill-rule:nonzero;stroke:none"
         id="path7050"
         inkscape:connector-curvature="0" />
      <path
         d="m 429.44234,854.764 c 0,0 -3.425,1.785 -3.3975,1.9 0.03,0.11625 5.78625,-0.49 5.78625,-0.49 l -0.345,-1.295 -2.04375,-0.115"
         style="fill:#5149a7;fill-opacity:1;fill-rule:nonzero;stroke:none"
         id="path7052"
         inkscape:connector-curvature="0" />
      <path
         d="m 446.39859,850.51275 0.80125,1.2025 1.94875,-0.62875 -1.025,-1.455 -1.725,0.88125"
         style="fill:#f68965;fill-opacity:1;fill-rule:nonzero;stroke:none"
         id="path7054"
         inkscape:connector-curvature="0" />
      <path
         d="m 447.19984,851.71525 -2.485,2.995 5.2225,-2.54 -0.78875,-1.08375 -1.94875,0.62875"
         style="fill:#5149a7;fill-opacity:1;fill-rule:nonzero;stroke:none"
         id="path7056"
         inkscape:connector-curvature="0" />
      <path
         d="m 425.32609,816.07775 c 0,0 -5.87125,19.17125 3.455,37.65 l 2.7625,0 c 0,0 -5.52625,-20.89625 1.38125,-37.82125 l -7.59875,0.17125"
         style="fill:#fabc29;fill-opacity:1;fill-rule:nonzero;stroke:none"
         id="path7058"
         inkscape:connector-curvature="0" />
      <path
         d="m 430.42359,816.7565 c 0,0 0.91125,20.02875 15.90375,34.30125 l 2.6025,-0.92875 c 0,0 -12.22625,-17.82625 -11.40625,-36.08875 l -7.1,2.71625"
         style="fill:#fabc29;fill-opacity:1;fill-rule:nonzero;stroke:none"
         id="path7060"
         inkscape:connector-curvature="0" />
      <path
         d="m 427.73484,771.62775 0.007,-1.1825 -0.02,-0.15375 -0.225,-0.845 -0.675,0.17125 -0.685,-0.635 c -0.29125,-0.26625 -0.7575,-0.17875 -0.925,0.1775 -0.2125,0.44875 -0.45375,1.02875 -0.53,1.47125 -0.03,0.175 0.0288,0.3525 0.14875,0.485 l 1.05,1.14875 c 0.15125,0.165 0.3825,0.23 0.5975,0.16625 l 0.8375,-0.2475 c 0.2475,-0.0738 0.4175,-0.29875 0.41875,-0.55625"
         style="fill:#f68965;fill-opacity:1;fill-rule:nonzero;stroke:none"
         id="path7062"
         inkscape:connector-curvature="0" />
      <path
         d="m 437.86359,797.5515 c 0,0 -7.65875,-8.2075 -8.1625,-11.28 -0.505,-3.07125 -1.625,-14.5 -1.625,-14.5 l -2.36125,0.45625 c 0,0 -0.81125,16.345 -0.095,18.2275 0.71875,1.8825 5.3225,11.47625 8.3225,12.36125 2.99875,0.88625 5.10625,-2.07125 3.92125,-5.265"
         style="fill:#ef316f;fill-opacity:1;fill-rule:nonzero;stroke:none"
         id="path7064"
         inkscape:connector-curvature="0" />
      <path
         d="m 427.22609,784.01275 c 0,0 -1.7275,5.7475 -0.63375,7.19625 1.095,1.44875 5.1225,0.13625 6.68625,-2.18125 1.56375,-2.31875 1.8775,-7.53625 -0.78125,-7.97 -2.65875,-0.435 -4.645,0.63625 -5.27125,2.955"
         style="fill:#f68965;fill-opacity:1;fill-rule:nonzero;stroke:none"
         id="path7066"
         inkscape:connector-curvature="0" />
      <path
         d="m 437.58859,817.63275 c 0,0 1.55375,-16.57875 1.55375,-21.07 0,-0.205 -0.004,-0.3975 -0.006,-0.59125 -1.15625,-2.92 -4.02625,-2.8625 -5.175,-2.6325 -1.15125,0.23 -5.64125,1.67 -5.6125,1.8425 l -0.0125,-0.015 c -1.54625,1.1225 -2.72875,2.455 -2.8375,2.7775 0,0 -4.145,8.63625 -0.5175,18.99875 l 12.6075,0.69"
         style="fill:#ef316f;fill-opacity:1;fill-rule:nonzero;stroke:none"
         id="path7068"
         inkscape:connector-curvature="0" />
      <path
         d="m 415.63859,772.474 -0.20125,-1.16375 -0.0462,-0.1475 -0.37,-0.79375 -0.6325,0.2875 -0.78875,-0.50375 c -0.33125,-0.2125 -0.775,-0.0437 -0.87875,0.3375 -0.12875,0.47875 -0.26625,1.0925 -0.2625,1.54 10e-4,0.17875 0.0888,0.3425 0.23125,0.45 l 1.235,0.9475 c 0.17875,0.1375 0.4175,0.16 0.6175,0.06 l 0.78125,-0.39125 c 0.23125,-0.115 0.35875,-0.3675 0.315,-0.6225"
         style="fill:#f68965;fill-opacity:1;fill-rule:nonzero;stroke:none"
         id="path7070"
         inkscape:connector-curvature="0" />
      <path
         d="m 430.16109,796.21775 c 0,0 -8.98,-6.735 -10.015,-9.6725 -1.0375,-2.935 -4.14625,-13.98875 -4.14625,-13.98875 l -2.245,0.86375 c 0,0 2.0725,16.235 3.10875,17.96125 1.03625,1.7275 7.25375,10.3625 10.3625,10.70875 3.10875,0.345 4.6625,-2.9375 2.935,-5.8725"
         style="fill:#ef316f;fill-opacity:1;fill-rule:nonzero;stroke:none"
         id="path7072"
         inkscape:connector-curvature="0" />
      <path
         d="m 433.61609,781.019 c 0,0 -4.60625,-1.95625 -6.79375,2.07375 -1.15125,2.5325 2.53375,0.11375 3.22375,0.92 0.69125,0.80625 -0.92125,2.41875 -0.46,2.99375 0.46,0.575 1.26625,-1.03625 1.7275,-0.115 0.46,0.92125 -0.69125,1.03625 -1.4975,2.0725 -0.80625,1.03625 0.69125,2.5325 -0.46,3.455 -1.15125,0.92 -4.375,1.61125 -2.41875,6.5625 1.95875,4.95 -3.22375,6.21625 -1.035,13.01 2.1875,6.7925 17.04,10.5925 19.80375,2.5325 2.7625,-8.05875 -6.4475,-10.0175 -5.8725,-13.58625 0.57625,-3.56875 2.64875,-4.49 -0.115,-8.05875 -2.76375,-3.57 -4.49125,-5.6425 -3.68375,-7.945 0.805,-2.30375 -1.3825,-3.915 -2.41875,-3.915"
         style="fill:#5149a7;fill-opacity:1;fill-rule:nonzero;stroke:none"
         id="path7074"
         inkscape:connector-curvature="0" />
      <path
         d="m 449.97109,763.5215 c -0.6675,0 -1.21,-0.54125 -1.21,-1.20875 0,-0.67 0.5425,-1.21 1.21,-1.21 0.6675,0 1.21,0.54 1.21,1.21 0,0.6675 -0.5425,1.20875 -1.21,1.20875 z m -3.795,4.96375 c -1.595,0 -2.9075,-1.185 -3.1175,-2.72125 l 6.235,0 c -0.21,1.53625 -1.52375,2.72125 -3.1175,2.72125 z m -5.005,-6.1725 c 0,-0.67 0.54125,-1.21 1.21,-1.21 0.6675,0 1.20875,0.54 1.20875,1.21 0,0.6675 -0.54125,1.20875 -1.20875,1.20875 -0.66875,0 -1.21,-0.54125 -1.21,-1.20875 z m 5.005,-9.13125 c -5.4675,0 -9.90125,4.4325 -9.90125,9.90125 0,5.4675 4.43375,9.9 9.90125,9.9 5.4675,0 9.90125,-4.4325 9.90125,-9.9 0,-5.46875 -4.43375,-9.90125 -9.90125,-9.90125"
         style="fill:#fac508;fill-opacity:1;fill-rule:nonzero;stroke:none"
         id="path7076"
         inkscape:connector-curvature="0" />
      <path
         d="m 299.10984,833.499 -0.57875,-1.16 15.69375,-7.84625 19.8,0.32375 21.49875,-8.0975 16.42,0 17.53125,-5.845 0.14375,0.0163 14.06,1.5975 7.925,-4.12125 0.5975,1.15 -8.275,4.30375 -0.1975,-0.0225 -14.11375,-1.60375 -17.56625,5.82 -16.40625,0 -21.39,8.10375 -0.12375,-0.003 -19.60625,-0.32125 -15.4125,7.705"
         style="fill:#fbfdfe;fill-opacity:1;fill-rule:nonzero;stroke:none"
         id="path7078"
         inkscape:connector-curvature="0" />
      <path
         d="m 356.71234,802.4065 c 0,0 15.5525,25.19 13.6075,42.715 l 10.585,0.2175 -4.53625,-2.6275 1.29625,-0.22 c 0,0 -3.88875,-27.16125 -7.56125,-36.8 -3.84625,-10.095 -4.9675,-6.3525 -4.9675,-6.3525 l -8.42375,3.0675"
         style="fill:#5149a7;fill-opacity:1;fill-rule:nonzero;stroke:none"
         id="path7080"
         inkscape:connector-curvature="0" />
      <path
         d="m 351.09484,800.8415 c 0,0 0.865,17.4975 -0.43125,24.1925 -1.29625,6.6975 -5.185,19.87375 -5.185,19.87375 l 9.93625,0.21625 -2.60875,-1.8425 -1.6575,-0.965 c 0,0 7.075,-19.01 7.7225,-28.08125 0.64875,-9.07375 1.72875,-14.25875 1.72875,-14.25875 l -9.505,0.865"
         style="fill:#5149a7;fill-opacity:1;fill-rule:nonzero;stroke:none"
         id="path7082"
         inkscape:connector-curvature="0" />
      <path
         d="m 371.42734,749.05275 1.62,-1.13375 0.72875,-2.67375 -0.81,-0.16125 -0.485,0.97125 0.485,-4.61625 -0.81,0.16125 -0.80875,4.455 -0.97375,2.10625 0.89125,0.5675"
         style="fill:#f6ce9b;fill-opacity:1;fill-rule:nonzero;stroke:none"
         id="path7084"
         inkscape:connector-curvature="0" />
      <path
         d="m 381.01234,753.859 0.21625,-1.94375 2.37625,-2.37625 0.54,0.75625 -0.865,0.9725 4.53625,-1.08125 0,0.9725 -4.21125,1.62 -0.86375,1.5125 -1.72875,-0.4325"
         style="fill:#f6ce9b;fill-opacity:1;fill-rule:nonzero;stroke:none"
         id="path7086"
         inkscape:connector-curvature="0" />
      <path
         d="m 370.30359,747.419 c 0,0 -18.4475,22.38625 -20.59625,26.86375 0,0 -0.89625,1.61125 -0.89625,6.2675 0,4.6575 1.6125,21.85 1.6125,21.85 l 18.805,1.07375 c 0,0 -6.09,-20.9525 -6.2675,-21.49 -0.18,-0.5375 -3.225,-3.76125 -6.09125,-4.4775 l 15.76125,-28.47625 -2.3275,-1.61125"
         style="fill:#84b6e5;fill-opacity:1;fill-rule:nonzero;stroke:none"
         id="path7088"
         inkscape:connector-curvature="0" />
      <path
         d="m 358.62234,775.34275 c 0,0 0.78375,2.32625 1.215,3.73125 0,0 -3.8375,-0.0812 -5.18875,-1.865 l 1.43375,-3.43375 2.54,1.5675"
         style="fill:#f6ce9b;fill-opacity:1;fill-rule:nonzero;stroke:none"
         id="path7090"
         inkscape:connector-curvature="0" />
      <path
         d="m 361.54109,768.07775 c 0,0 1.135,6.6125 0,8.11375 -1.135,1.5025 -5.0275,-1.05125 -6.65,-3.45625 -1.62,-2.4025 -1.945,-7.81375 0.8125,-8.26375 2.75625,-0.45 5.18875,1.2025 5.8375,3.60625"
         style="fill:#f6ce9b;fill-opacity:1;fill-rule:nonzero;stroke:none"
         id="path7092"
         inkscape:connector-curvature="0" />
      <path
         d="m 359.79609,780.3165 c 0,0 14.78875,-9.3025 15.98125,-11.21125 1.19375,-1.9075 4.5325,-16.10125 4.5325,-16.10125 l 2.8625,0.71625 c 0,0 -1.66875,15.8625 -2.14625,17.5325 -0.4775,1.67 -15.02875,17.17375 -18.36875,17.17375 -3.33875,0 -4.53125,-4.2925 -2.86125,-8.11"
         style="fill:#84b6e5;fill-opacity:1;fill-rule:nonzero;stroke:none"
         id="path7094"
         inkscape:connector-curvature="0" />
      <path
         d="m 360.49234,766.604 c 0,0 0.755,-2.5925 -0.86375,-3.88875 -1.62,-1.295 -4.42875,-1.07875 -4.86125,-0.6475 0,0.75625 1.72875,1.1875 1.29625,1.62 -0.4325,0.4325 -2.7,0 -3.24,2.26875 -0.54,2.2675 0.21625,2.7 0.21625,2.7 0,0 -1.18875,1.40375 0.215,3.3475 1.405,1.94375 4.5775,3.54625 5.3675,3.33875 0.79,-0.2075 0.3575,-3.23125 0.3575,-3.23125 0,0 -1.83625,-0.215 -1.945,-1.40375 -0.1075,-1.1875 0.865,-1.29625 1.29625,-0.86375 0.4325,0.4325 0.54,1.40375 0.865,1.1875 0.32375,-0.21625 -0.10875,-2.48375 -0.10875,-2.48375 0,0 1.18875,-0.97125 1.405,-1.94375"
         style="fill:#5149a7;fill-opacity:1;fill-rule:nonzero;stroke:none"
         id="path7096"
         inkscape:connector-curvature="0" />
      <path
         d="m 369.19734,832.77775 -11.1075,3.045 c -3.05375,0.83875 -4.86625,4.0225 -4.03,7.07625 l 2.10125,7.66 c 0.8375,3.055 4.0225,4.86875 7.07625,4.03125 l 3.33,-0.915 3.27875,3.24125 1.1675,-4.46 3.33125,-0.91375 c 3.05375,-0.8375 4.8675,-4.02125 4.03,-7.07625 l -2.10125,-7.66 c -0.83875,-3.05375 -4.0225,-4.8675 -7.07625,-4.02875"
         style="fill:#8063b8;fill-opacity:1;fill-rule:nonzero;stroke:none"
         id="path7098"
         inkscape:connector-curvature="0" />
      <path
         d="m 361.84734,845.33025 c 0.18625,0.67875 -0.2125,1.37875 -0.89125,1.565 -0.67875,0.18625 -1.37875,-0.2125 -1.56625,-0.89125 -0.185,-0.67875 0.21375,-1.38 0.8925,-1.56625 0.6775,-0.18625 1.37875,0.21375 1.565,0.8925"
         style="fill:#ffffff;fill-opacity:1;fill-rule:nonzero;stroke:none"
         id="path7100"
         inkscape:connector-curvature="0" />
      <path
         d="m 367.44484,843.794 c 0.18625,0.67875 -0.2125,1.38 -0.89125,1.56625 -0.67875,0.185 -1.38,-0.21375 -1.565,-0.8925 -0.1875,-0.67875 0.2125,-1.37875 0.89125,-1.56625 0.6775,-0.185 1.37875,0.21375 1.565,0.8925"
         style="fill:#ffffff;fill-opacity:1;fill-rule:nonzero;stroke:none"
         id="path7102"
         inkscape:connector-curvature="0" />
      <path
         d="m 373.04234,842.259 c 0.18625,0.67875 -0.2125,1.37875 -0.89125,1.56625 -0.67875,0.185 -1.37875,-0.21375 -1.56625,-0.8925 -0.185,-0.67875 0.21375,-1.38 0.8925,-1.565 0.67875,-0.1875 1.38,0.2125 1.565,0.89125"
         style="fill:#ffffff;fill-opacity:1;fill-rule:nonzero;stroke:none"
         id="path7104"
         inkscape:connector-curvature="0" />
      <path
         d="m 316.31734,824.81775 c 0,1.135 -0.91875,2.0525 -2.0525,2.0525 -1.13375,0 -2.05125,-0.9175 -2.05125,-2.0525 0,-1.1325 0.9175,-2.05125 2.05125,-2.05125 1.13375,0 2.0525,0.91875 2.0525,2.05125"
         style="fill:#fabc29;fill-opacity:1;fill-rule:nonzero;stroke:none"
         id="path7106"
         inkscape:connector-curvature="0" />
      <path
         d="m 391.70609,811.6415 c 0,1.13375 -0.92,2.0525 -2.0525,2.0525 -1.13375,0 -2.0525,-0.91875 -2.0525,-2.0525 0,-1.1325 0.91875,-2.05125 2.0525,-2.05125 1.1325,0 2.0525,0.91875 2.0525,2.05125"
         style="fill:#ef316f;fill-opacity:1;fill-rule:nonzero;stroke:none"
         id="path7108"
         inkscape:connector-curvature="0" />
    </g>
  </g>
</svg>
